<?xml version="1.0" encoding="UTF-8" standalone="no"?>
<!-- Created with Inkscape (http://www.inkscape.org/) -->

<svg
   xmlns:dc="http://purl.org/dc/elements/1.1/"
   xmlns:cc="http://creativecommons.org/ns#"
   xmlns:rdf="http://www.w3.org/1999/02/22-rdf-syntax-ns#"
   xmlns:svg="http://www.w3.org/2000/svg"
   xmlns="http://www.w3.org/2000/svg"
   xmlns:sodipodi="http://sodipodi.sourceforge.net/DTD/sodipodi-0.dtd"
   xmlns:inkscape="http://www.inkscape.org/namespaces/inkscape"
   width="49.633919mm"
   height="163.40219mm"
   viewBox="0 0 175.86822 578.98414"
   id="svg4223"
   version="1.1"
   inkscape:version="0.91 r13725"
   sodipodi:docname="strokes.svg">
  <defs
     id="defs4225" />
  <sodipodi:namedview
     id="base"
     pagecolor="#ffffff"
     bordercolor="#666666"
     borderopacity="1.0"
     inkscape:pageopacity="0.0"
     inkscape:pageshadow="2"
     inkscape:zoom="0.35"
     inkscape:cx="-495.84354"
     inkscape:cy="323.01803"
     inkscape:document-units="px"
     inkscape:current-layer="layer1"
     showgrid="false"
     fit-margin-top="0"
     fit-margin-left="0"
     fit-margin-right="0"
     fit-margin-bottom="0"
     inkscape:window-width="2560"
     inkscape:window-height="1395"
     inkscape:window-x="36"
     inkscape:window-y="141"
     inkscape:window-maximized="0" />
  <metadata
     id="metadata4228">
    <rdf:RDF>
      <cc:Work
         rdf:about="">
        <dc:format>image/svg+xml</dc:format>
        <dc:type
           rdf:resource="http://purl.org/dc/dcmitype/StillImage" />
        <dc:title></dc:title>
      </cc:Work>
    </rdf:RDF>
  </metadata>
  <g
     inkscape:label="Layer 1"
     inkscape:groupmode="layer"
     id="layer1"
     transform="translate(-197.98639,-276.3961)">
    <path
       style="fill:#000000"
       d="m 214.0338,852.51163 c 2.97757,-20.1018 32.76532,-28.14066 47.77159,-40.74147 30.03414,-17.35757 58.90083,-36.9618 89.96398,-52.38851 25.39901,10.26117 -14.88822,21.12604 -24.31969,29.25063 -35.8409,21.27216 -72.08383,42.33084 -105.96401,66.46725 -2.69408,0.98634 -5.61196,-0.80638 -7.45187,-2.5879 z m -8.59199,-32.97646 c -6.47239,-14.11386 26.19248,-21.59171 35.37138,-32.32307 36.22537,-22.84204 71.26652,-47.95525 109.32676,-67.66562 23.50336,1.78882 -8.20278,22.14247 -17.08518,25.83669 -41.0282,25.41996 -81.47485,51.79133 -122.82699,76.67832 l -1.84468,-0.74211 -2.94129,-1.78421 0,0 z m 18.7662,-49.40352 c -11.07803,-17.05058 25.91067,-23.2095 35.33546,-34.12449 31.97271,-19.45995 62.74742,-40.96214 95.13443,-59.67032 26.80356,6.82563 -13.38035,23.62533 -23.56117,31.45751 -33.58632,21.15268 -67.00741,42.59321 -101.0276,63.03907 l -2.55415,-0.0614 -3.32697,-0.64042 0,0 z m -8.01311,-40 c -1.41333,-17.85536 31.49101,-23.1106 43.19785,-35.50545 35.1043,-21.87731 68.73954,-46.16496 104.57195,-66.8198 25.95853,2.21243 -6.22025,22.26499 -16.52434,26.47551 -40.6424,24.62289 -78.73563,53.49655 -120.59238,76.02704 -3.29235,1.46457 -7.59756,2.45459 -10.65308,-0.1773 z m 0.97268,-35.48869 c -3.99165,-16.41033 25.71526,-23.55216 35.66133,-35.20372 30.23581,-21.49957 60.9681,-42.74105 90.78509,-64.55681 29.74564,1.42483 -4.72573,22.57636 -14.92789,29.16206 -33.70973,23.1362 -67.84319,45.8556 -99.49655,71.73728 -3.75717,2.6762 -8.80881,2.08752 -12.02198,-1.13881 z M 200.16332,663.3718 c -10.84936,-11.14011 22.03882,-17.08663 28.71308,-25.73729 39.94317,-25.55556 77.17101,-55.16006 117.28758,-80.40016 23.9742,9.54498 -16.84713,24.6595 -25.39641,34.22613 -35.06674,23.82129 -68.94838,49.83313 -106.40829,69.82696 -4.29215,1.89312 -9.53946,4.82401 -14.19596,2.08436 z m 5.43358,-38.49406 c -9.69006,-14.24664 25.11796,-22.30126 33.94995,-32.34833 34.82626,-22.2401 68.08514,-47.00775 103.91334,-67.62862 17.18493,-7.81661 12.69404,12.39663 -0.63479,14.62439 -43.11789,29.67292 -86.01002,59.97289 -131.0765,86.58062 l -2.74545,-0.4293 -3.40655,-0.79876 0,0 z m 8.7395,-37.38185 c -3.32119,-17.57062 29.72083,-26.05701 41.17861,-39.18149 32.03661,-22.09547 63.32398,-45.57605 96.93452,-65.20028 21.12975,9.45587 -16.87222,22.58771 -23.9208,30.67312 -36.4388,24.94863 -71.72736,51.55502 -108.33966,76.23909 l -2.55624,-0.49729 -3.29643,-2.03315 0,0 z m -4.34521,-36.3116 c -2.13358,-16.53403 23.70634,-26.38638 34.99302,-37.01235 31.07652,-20.76276 62.27362,-41.96949 96.32286,-57.56103 20.83074,3.20264 -13.29671,19.96863 -20.82045,25.35531 -33.32558,20.88323 -68.25473,40.60451 -96.56528,68.16754 -4.0716,2.49843 -9.57279,3.72128 -13.93015,1.05053 z m -4.54938,-32.70175 c -6.63352,-15.17855 25.28544,-23.54419 35.09589,-34.98761 30.28727,-20.75915 59.82738,-42.90783 92.00905,-60.68026 27.80235,0.79765 -14.13024,23.57357 -23.36269,30.44893 -31.7106,21.57815 -64.7977,41.2903 -94.33921,65.86206 -2.79984,2.13104 -6.85356,1.99135 -9.40304,-0.64312 z m 2.44803,-45.93716 c 3.6015,-17.23437 28.82895,-25.55639 41.47866,-38.20384 29.33243,-20.57504 58.27219,-42.70388 91.31824,-57.00919 25.193,2.15662 -13.98097,22.01912 -23.07247,26.50381 -34.54083,19.25815 -64.07648,45.70366 -95.41966,69.44423 -4.40044,4.24119 -10.43852,4.6095 -14.30477,-0.73501 z m -5.54988,-34.06284 c -6.00883,-13.46649 25.88757,-21.61883 34.99395,-32.18287 35.11755,-22.90272 69.49418,-47.32177 106.2954,-67.40126 8.24025,16.2751 -26.28576,25.7447 -36.53691,37.25598 -32.72819,21.98956 -65.26134,44.36604 -98.94743,64.85446 l -2.56438,-0.7421 -3.24063,-1.78421 0,0 z m -0.14517,-33.78275 c -4.27952,-15.62781 28.36585,-24.90644 39.15034,-36.93454 30.49352,-20.85338 59.25351,-44.33326 90.78102,-63.5985 21.49517,13.2856 -19.11653,21.43675 -26.18858,32.07395 -31.93479,22.6871 -61.37514,49.1201 -95.162,69.06933 l -4.62205,0.68176 -3.95874,-1.292 1e-5,0 z m -1.50915,-38.77866 c 1.0742,-18.68354 33.29571,-25.65663 47.13837,-38.04545 30.4137,-17.32241 58.85364,-38.90042 91.7094,-51.47958 19.71653,1.48088 -14.58488,15.87083 -21.36731,21.12514 -37.99808,22.497 -74.0199,48.30725 -112.57678,69.8034 l -2.61022,-0.41228 -2.29346,-0.99123 z"
       id="path4836"
       inkscape:connector-curvature="0" />
  </g>
</svg>
