<svg xmlns="http://www.w3.org/2000/svg" width="2127.5" height="537.1" viewBox="0 0 1994.5 503.5"><path d="M1273 244L1151 2l242-1 243-1-121 244-121 243-121-243z" fill="#fcd545"/><path d="M1727 502a242 242 0 01-216-232v-18l45-91 45-91 10-6a241 241 0 01371 119 242 242 0 01-255 319z" fill="#fa47a0"/><path d="M238 485h10c3 1 0 1-5 1-6 0-8 0-5-1zm453 0a244 244 0 01-210-190l1-8c4-19 4-34 4-159V1h189v124c0 106 0 124 2 130 7 30 40 45 67 32 9-4 20-16 24-25l2-8 1-126V1h191v124l-1 138a246 246 0 01-100 177 249 249 0 01-170 45zm-424-1h2c1 1 0 1-1 1-2 0-2 0-1-1zm134-57l2-2c2-2 2-2 1 0l-3 2zm-321-4c-2-2-2-2 0-1l2 3-2-2zm-18-18c-1-2-1-2 1 0 2 1 2 3 1 3l-2-3zm151-128l-3-3 3 3 3 3-3-3zM0 254c0-3 0-4 1-2v4c-1 1-1 0-1-2z" fill="#2ee4ce"/><path d="M960 375c2-334 2-373 1-374s41-1 94-1h96l1 3v292h146l47 94 47 96-216 1H960V375z" fill="#1ba3fa"/><path d="M210 483A243 243 0 011 252l-1-7h198l2 6c5 25 25 41 50 40 22-1 39-17 44-39 2-7 2-30 2-130V0h190v135c-1 149 0 140-9 171a243 243 0 01-267 177z" fill="#074d7d"/></svg>