<?xml version="1.0" encoding="UTF-8" standalone="no"?>
<!-- Created with Inkscape (http://www.inkscape.org/) -->

<svg
   xmlns:dc="http://purl.org/dc/elements/1.1/"
   xmlns:cc="http://creativecommons.org/ns#"
   xmlns:rdf="http://www.w3.org/1999/02/22-rdf-syntax-ns#"
   xmlns:svg="http://www.w3.org/2000/svg"
   xmlns="http://www.w3.org/2000/svg"
   xmlns:sodipodi="http://sodipodi.sourceforge.net/DTD/sodipodi-0.dtd"
   xmlns:inkscape="http://www.inkscape.org/namespaces/inkscape"
   width="206.73712mm"
   height="207.31709mm"
   viewBox="0 0 732.53311 734.58818"
   id="svg2"
   version="1.1"
   inkscape:version="0.91 r13725"
   sodipodi:docname="leaf.svg">
  <defs
     id="defs4" />
  <sodipodi:namedview
     id="base"
     pagecolor="#ffffff"
     bordercolor="#666666"
     borderopacity="1.0"
     inkscape:pageopacity="0.0"
     inkscape:pageshadow="2"
     inkscape:zoom="1.4"
     inkscape:cx="347.87189"
     inkscape:cy="318.41276"
     inkscape:document-units="px"
     inkscape:current-layer="layer1"
     showgrid="false"
     fit-margin-top="0"
     fit-margin-left="0"
     fit-margin-right="0"
     fit-margin-bottom="0"
     inkscape:window-width="2560"
     inkscape:window-height="1395"
     inkscape:window-x="105"
     inkscape:window-y="0"
     inkscape:window-maximized="0" />
  <metadata
     id="metadata7">
    <rdf:RDF>
      <cc:Work
         rdf:about="">
        <dc:format>image/svg+xml</dc:format>
        <dc:type
           rdf:resource="http://purl.org/dc/dcmitype/StillImage" />
        <dc:title></dc:title>
      </cc:Work>
    </rdf:RDF>
  </metadata>
  <g
     inkscape:label="Layer 1"
     inkscape:groupmode="layer"
     id="layer1"
     transform="translate(-7.0841084,-6.5890681)">
    <path
       style="fill:#000000"
       d="M 573.65075,738.13883 C 544.77439,710.26764 529.62558,670.9309 509.28594,636.73871 482.30072,604.73174 470.57358,563.42745 454.28421,525.41072 c -3.68749,-18.42376 -15.81597,-47.72907 -34.95663,-32.22093 30.32526,79.58892 65.29933,161.17746 129.87535,220.22382 5.08545,25.59756 -41.75205,9.59392 -42.52371,-11.92846 -47.10774,-62.7713 -74.41491,-137.04689 -107.56072,-206.97082 -23.91442,4.17227 -77.00084,8.90724 -48.61128,-27.75026 13.42904,-31.16881 23.98886,-67.26804 8.36011,-99.6579 -21.56211,-18.37901 -17.60487,39.30905 -24.56163,53.05275 -6.29953,24.88364 -10.88054,76.29271 -46.65228,48.26554 -70.88495,-11.76712 -145.55259,-25.0455 -215.598397,-1.93498 -19.628937,3.82002 -76.5896295,37.17998 -62.858704,-3.72375 19.047962,-28.52062 40.988422,-55.49005 55.426106,-86.65984 12.456095,-29.18946 17.519627,-62.2277 32.420966,-89.70527 34.414209,3.47605 73.071149,1.82008 106.675999,-7.01682 -36.55967,-8.23948 -77.11949,-1.47797 -113.848325,-0.79684 -11.637888,-23.4966 17.321855,-54.54575 13.650355,-81.96753 39.94327,1.26369 81.02956,8.55185 121.7644,6.5188 8.64635,-5.89651 -42.76593,-7.77468 -56.06374,-11.17893 -19.44843,-9.84593 -51.26231,-6.01121 -61.25547,-15.92679 9.09094,-21.45887 5.09369,-79.248673 40.79643,-57.53716 42.48461,12.48043 86.56122,28.31858 131.53276,25.11104 C 252.4694,123.80533 213.62104,125.17141 182.91801,109.83682 158.80707,102.92671 110.58508,93.645619 150.19449,66.03301 180.66984,38.20742 220.6072,20.097801 260.89631,10.613079 315.60544,0.05186507 376.21514,9.8580708 420.04834,45.033577 c 15.14082,23.412594 27.07853,45.15552 57.82285,27.577018 91.79759,-20.465046 192.46458,24.80184 240.34738,103.478835 26.69782,29.91056 25.07926,72.95485 13.19067,108.67278 -15.75373,42.52616 -36.86429,85.65687 -71.71379,116.12993 -26.88298,-13.28258 -30.79569,-57.7637 -52.21241,-81.15244 -20.14027,-30.13054 -46.68401,-74.12226 -85.40626,-76.05308 -11.81274,28.33252 40.49511,54.01444 49.22969,84.05176 24.79938,30.57924 38.95458,66.50097 53.72952,102.07411 -14.29951,28.58264 -59.29004,34.22147 -86.46735,51.456 -14.49558,7.82337 -56.82361,30.84854 -36.15005,-3.71562 15.53321,-37.56806 5.91989,-78.51561 -12.12126,-113.46826 -11.80961,-19.13188 -36.84538,-73.08984 -56.69592,-59.52396 13.31032,52.41047 45.7834,101.39192 42.97453,156.87442 3.31793,27.24273 -40.25975,18.83243 -14.33124,46.26171 20.84171,46.54694 39.18741,94.27057 67.94399,136.94293 18.65916,29.89574 37.16618,60.03371 55.2145,90.18879 1.91579,6.07733 -9.28785,8.9614 -11.75244,3.31033 z M 400.69885,477.96181 c 37.21986,2.78311 67.95713,-20.556 51.17201,-58.99709 -1.18497,-36.82734 -22.72865,-67.27319 -31.80137,-101.75862 -22.94717,-33.43256 30.93959,-48.55265 43.61331,-17.38012 32.40017,22.26515 52.14341,56.64018 57.25605,94.79756 6.98299,20.68486 2.65601,51.14932 9.05075,67.17976 19.85984,-16.36401 88.659,-14.57848 69.64176,-49.05682 -8.41053,-33.39937 -33.42688,-58.19685 -49.72844,-87.88406 -17.066,-27.09116 -53.31922,-48.7586 -48.14687,-84.68244 28.65459,-30.56191 65.60702,13.29357 87.64443,32.60926 28.41547,33.05934 46.6923,72.90123 68.01963,110.36847 28.61629,-28.38436 48.8332,-65.92067 60.3513,-104.21256 12.96802,-36.8487 12.86845,-80.11992 -16.38445,-109.9721 C 673.14018,131.94582 632.05502,100.84765 584.65852,93.226475 540.4197,76.427067 488.73873,79.098911 444.67474,95.35554 421.04976,105.14768 432.5276,57.947848 406.61485,50.426596 347.68671,9.7768797 265.22694,11.835696 204.12069,47.254439 c -19.34182,8.100408 -65.49228,35.647508 -20.50814,43.133911 32.85285,15.58353 69.16099,21.81187 102.31033,36.1242 29.85036,7.13362 12.86848,42.76236 -11.35752,34.51575 -35.13082,-0.58029 -69.24374,-9.419 -103.44822,-16.40894 -21.70978,-9.80801 -51.11212,-18.69562 -45.52123,16.14676 42.32399,16.49374 88.85595,21.05191 133.93539,25.5781 37.22597,36.64126 -30.06332,33.8664 -54.04255,33.00729 -29.1212,8.21714 -72.03723,-14.30133 -92.24278,0.9377 -5.93952,21.11859 -21.48494,54.29644 15.84431,42.22816 34.41669,1.04485 70.04987,-3.34987 103.62259,4.12891 15.58279,29.81903 -52.94775,31.35842 -76.28097,35.95064 -27.73436,0.87823 -57.239405,-1.62211 -56.31021,34.26939 -11.334029,43.33684 -37.625283,80.18997 -58.977837,118.87622 32.896551,-5.40011 66.098907,-17.45183 100.452467,-19.26107 44.58145,-5.4663 89.58986,3.9763 133.85035,9.89134 46.04932,21.65753 46.39812,-33.24792 53.21344,-62.93171 -4.04697,-31.70928 30.33344,-50.68609 44.87053,-16.10852 20.72552,35.08946 5.94043,74.77276 -3.60804,110.48662 2.50727,8.27415 23.22168,-1.11857 30.77625,0.14262 z"
       id="path4201"
       inkscape:connector-curvature="0" />
  </g>
</svg>
